# xmcd CD database file
# Copyright (C) 1996 Ti Kan
#
# Track frame offsets:
# 	150
# 	16562
# 	29205
# 	45872
# 	58917
# 	70675
# 	87705
# 	102962
# 	119055
# 	133827
# 	152722
# 	166547
# 	178795
# 	198617
#
# Disc length: 2838 seconds
#
# Revision: 1
# Processed by: cddbd v1.4b41PL1 Copyright (c) Steve Scherf et al.
# Submitted via: DiscPlay 3.3.1
#
DISCID=c10b140e
DTITLE=Fred McCarty - Till I Get Home
DYEAR=1900
DGENRE=
TTITLE0=Mary Lou
TTITLE1=Do You Believe
TTITLE2=Easier Than Before
TTITLE3=Hallelujah I Love Her So
TTITLE4=I've Been Missing Me
TTITLE5=Hold On To Love
TTITLE6=Till I Get Home
TTITLE7=Fools Bill Of Rights
TTITLE8=Showtime
TTITLE9=All I Want Is You Back Again
TTITLE10=Low Down Things
TTITLE11=Battlefield Of Love
TTITLE12=No Excuses
TTITLE13=Riding In The Country
EXTD=
EXTT0=
EXTT1=
EXTT2=
EXTT3=
EXTT4=
EXTT5=
EXTT6=
EXTT7=
EXTT8=
EXTT9=
EXTT10=
EXTT11=
EXTT12=
EXTT13=
PLAYORDER=
